name Walk1.mot
datacolumns 19
datarows 20
range 1.74200000 1.76100000
endheader

                time	   L_ground_force_vx	   L_ground_force_vy	   L_ground_force_vz	   L_ground_force_px	   L_ground_force_py	   L_ground_force_pz	   R_ground_force_vx	   R_ground_force_vy	   R_ground_force_vz	   R_ground_force_px	   R_ground_force_py	   R_ground_force_pz	   L_ground_torque_x	   L_ground_torque_y	   L_ground_torque_z	   R_ground_torque_x	   R_ground_torque_y	   R_ground_torque_z	
          1.74200000	          0.00000000	          0.00000000	          0.00000000	          0.00000000	          0.00000000	          0.00000000	         15.33914519	        570.80924403	         36.38747750	         -0.40868430	          0.00000000	         -0.06610796	          0.00000000	          0.00000000	          0.00000000	          0.00000000	         -0.42263284	          0.00000000	
          1.74300000	          0.00000000	          0.00000000	          0.00000000	          0.00000000	          0.00000000	          0.00000000	         15.73813181	        572.32840911	         36.56624985	         -0.40843190	          0.00000000	         -0.06611813	          0.00000000	          0.00000000	          0.00000000	          0.00000000	         -0.42358710	          0.00000000	
          1.74400000	          0.00000000	          0.00000000	          0.00000000	          0.00000000	          0.00000000	          0.00000000	         16.15299306	        573.93434964	         36.72349390	         -0.40820879	          0.00000000	         -0.06608387	          0.00000000	          0.00000000	          0.00000000	          0.00000000	         -0.43401210	          0.00000000	
          1.74500000	          0.00000000	          0.00000000	          0.00000000	          0.00000000	          0.00000000	          0.00000000	         16.58826776	        575.58823131	         36.86780448	         -0.40801470	          0.00000000	         -0.06602330	          0.00000000	          0.00000000	          0.00000000	          0.00000000	         -0.44760190	          0.00000000	
          1.74600000	          0.00000000	          0.00000000	          0.00000000	          0.00000000	          0.00000000	          0.00000000	         17.03501974	        577.24368744	         37.02545036	         -0.40783219	          0.00000000	         -0.06598346	          0.00000000	          0.00000000	          0.00000000	          0.00000000	         -0.45522375	          0.00000000	
          1.74700000	          0.00000000	          0.00000000	          0.00000000	          0.00000000	          0.00000000	          0.00000000	         17.47918253	        578.88253889	         37.21754009	         -0.40764004	          0.00000000	         -0.06599682	          0.00000000	          0.00000000	          0.00000000	          0.00000000	         -0.45253944	          0.00000000	
          1.74800000	          0.00000000	          0.00000000	          0.00000000	          0.00000000	          0.00000000	          0.00000000	         17.91739944	        580.50330563	         37.44157030	         -0.40743603	          0.00000000	         -0.06606901	          0.00000000	          0.00000000	          0.00000000	          0.00000000	         -0.44208983	          0.00000000	
          1.74900000	          0.00000000	          0.00000000	          0.00000000	          0.00000000	          0.00000000	          0.00000000	         18.35469516	        582.09984403	         37.67903225	         -0.40723746	          0.00000000	         -0.06618969	          0.00000000	          0.00000000	          0.00000000	          0.00000000	         -0.42918560	          0.00000000	
          1.75000000	          0.00000000	          0.00000000	          0.00000000	          0.00000000	          0.00000000	          0.00000000	         18.79157638	        583.68280033	         37.91673759	         -0.40704984	          0.00000000	         -0.06633292	          0.00000000	          0.00000000	          0.00000000	          0.00000000	         -0.41653566	          0.00000000	
          1.75100000	          0.00000000	          0.00000000	          0.00000000	          0.00000000	          0.00000000	          0.00000000	         19.22302710	        585.29339893	         38.15633566	         -0.40685185	          0.00000000	         -0.06645223	          0.00000000	          0.00000000	          0.00000000	          0.00000000	         -0.40474747	          0.00000000	
          1.75200000	          0.00000000	          0.00000000	          0.00000000	          0.00000000	          0.00000000	          0.00000000	         19.64622442	        586.97597236	         38.40857524	         -0.40662130	          0.00000000	         -0.06649879	          0.00000000	          0.00000000	          0.00000000	          0.00000000	         -0.39514409	          0.00000000	
          1.75300000	          0.00000000	          0.00000000	          0.00000000	          0.00000000	          0.00000000	          0.00000000	         20.06312520	        588.74883040	         38.68418744	         -0.40636265	          0.00000000	         -0.06645476	          0.00000000	          0.00000000	          0.00000000	          0.00000000	         -0.38950074	          0.00000000	
          1.75400000	          0.00000000	          0.00000000	          0.00000000	          0.00000000	          0.00000000	          0.00000000	         20.47864642	        590.59610238	         38.98523174	         -0.40610001	          0.00000000	         -0.06634627	          0.00000000	          0.00000000	          0.00000000	          0.00000000	         -0.38905646	          0.00000000	
          1.75500000	          0.00000000	          0.00000000	          0.00000000	          0.00000000	          0.00000000	          0.00000000	         20.89833496	        592.47891141	         39.29981242	         -0.40584972	          0.00000000	         -0.06623642	          0.00000000	          0.00000000	          0.00000000	          0.00000000	         -0.39278421	          0.00000000	
          1.75600000	          0.00000000	          0.00000000	          0.00000000	          0.00000000	          0.00000000	          0.00000000	         21.32531847	        594.35200970	         39.60968666	         -0.40560980	          0.00000000	         -0.06619599	          0.00000000	          0.00000000	          0.00000000	          0.00000000	         -0.39700550	          0.00000000	
          1.75700000	          0.00000000	          0.00000000	          0.00000000	          0.00000000	          0.00000000	          0.00000000	         21.75809482	        596.18168287	         39.90501552	         -0.40537257	          0.00000000	         -0.06625244	          0.00000000	          0.00000000	          0.00000000	          0.00000000	         -0.39946531	          0.00000000	
          1.75800000	          0.00000000	          0.00000000	          0.00000000	          0.00000000	          0.00000000	          0.00000000	         22.19016331	        597.96871019	         40.18619694	         -0.40513597	          0.00000000	         -0.06637853	          0.00000000	          0.00000000	          0.00000000	          0.00000000	         -0.40137703	          0.00000000	
          1.75900000	          0.00000000	          0.00000000	          0.00000000	          0.00000000	          0.00000000	          0.00000000	         22.61632854	        599.74282423	         40.45390606	         -0.40490528	          0.00000000	         -0.06653572	          0.00000000	          0.00000000	          0.00000000	          0.00000000	         -0.40282666	          0.00000000	
          1.76000000	          0.00000000	          0.00000000	          0.00000000	          0.00000000	          0.00000000	          0.00000000	         23.04082724	        601.52466299	         40.70609137	         -0.40468999	          0.00000000	         -0.06669702	          0.00000000	          0.00000000	          0.00000000	          0.00000000	         -0.40004154	          0.00000000	
          1.76100000	          0.00000000	          0.00000000	          0.00000000	          0.00000000	          0.00000000	          0.00000000	         23.47115729	        603.30823101	         40.94027830	         -0.40449880	          0.00000000	         -0.06683426	          0.00000000	          0.00000000	          0.00000000	          0.00000000	         -0.39064643	          0.00000000	
